<?xml version="1.0" encoding="UTF-8" standalone="no"?>
<!DOCTYPE svg PUBLIC "-//W3C//DTD SVG 1.1//EN" "http://www.w3.org/Graphics/SVG/1.1/DTD/svg11.dtd">
<svg version="1.1" xmlns="http://www.w3.org/2000/svg" xmlns:xlink="http://www.w3.org/1999/xlink" preserveAspectRatio="xMidYMid meet" viewBox="0 0 640 640" width="640" height="640"><defs><path d="M27.64 -17.28L638.06 -17.28L638.06 505.63L27.64 505.63L27.64 -17.28Z" id="g2Ua2EloJB"></path><path d="M546.39 205C558.08 215.78 565.39 222.52 568.32 225.22C579.55 235.57 577.65 253.82 564.53 261.64C523.4 286.15 569.79 258.51 564.53 261.64C437.3 337.45 279.27 339.54 150.09 267.12C142.54 262.89 191.85 290.53 150.09 267.12C132.56 257.29 131.23 232.56 147.61 220.91C150.6 218.79 158.06 213.49 170 205" id="aDVjazxAj"></path><path d="M549.44 130.97C561.14 141.75 568.45 148.49 571.37 151.19C582.61 161.54 580.71 179.8 567.58 187.62C526.45 212.12 572.84 184.48 567.58 187.62C440.35 263.42 282.33 265.51 153.14 193.09C145.6 188.86 194.9 216.5 153.14 193.09C135.61 183.26 134.29 158.53 150.67 146.89C153.65 144.76 161.11 139.46 173.06 130.97" id="bskUmEboB"></path><path d="" id="h10TapyaW6"></path><path d="M141.53 210.28C127.09 200.18 118.06 193.88 114.45 191.35C100.01 181.25 99.86 159.91 114.18 149.63C119.03 146.14 131.15 137.42 150.56 123.47" id="k1nzYcd3YA"></path><path d="M550.56 131.19C534.5 126.1 524.47 122.92 520.46 121.65C409.38 86.43 289.78 88.89 180.25 128.67C179.06 129.1 176.11 130.17 171.39 131.89" id="b1iGFsMIGl"></path><path d="M565.83 122.08C584.49 134.46 596.15 142.2 600.81 145.29C619.57 157.74 617.66 185.86 597.39 195.65C593.74 197.41 584.61 201.83 570 208.89" id="dgWlLXE0W"></path><path d="M245.73 185.97L233.76 176.85L221.79 163.93L215.14 151.01L215.14 138.09L224.45 126.69L240.41 113.77L257.7 103.13L272.33 92.49L284.3 79.57L292.28 63.61L293.61 49.17L290.95 35.49L286.96 21.05L284.3 8.89" id="c2m7mLdsYO"></path><path d="M439.79 181.11L448.65 173.81L451.25 160.66L450.21 139.48L447.6 124.15L443.96 113.92L439.27 104.43L433.02 98.59L426.25 92.75L412.71 83.98L404.9 78.87L397.6 73.03L390.31 64.27L384.06 53.31L377.29 36.51L376.25 25.56L377.81 11.68L380.94 0" id="a1azAbZi3j"></path><path d="M365.83 484.58C374.5 478.02 379.92 473.91 382.08 472.27C397.77 460.39 399.45 437.43 385.66 423.38C383.22 420.9 390.86 428.68 385.66 423.38C377.63 415.21 371.46 405.39 367.56 394.61C365.94 390.13 361.9 378.91 355.42 360.97C349.14 373.73 345.22 381.7 343.65 384.89C337.19 398.02 328.57 409.97 318.15 420.24C311.16 427.14 321.3 417.14 318.15 420.24C299.95 438.19 302.47 468.24 323.39 482.92C324.23 483.51 326.34 484.99 329.72 487.36" id="ff5Tp2njL"></path><path d="M530.83 424.98C537.82 419.66 542.19 416.34 543.94 415.01C556.57 405.41 557.92 386.92 546.82 375.58C544.86 373.57 550.96 379.81 546.77 375.53C540.32 368.94 535.36 361.03 532.23 352.35C530.93 348.72 527.66 339.65 522.44 325.14C517.38 335.46 514.21 341.92 512.95 344.5C507.76 355.07 500.83 364.71 492.46 372.99C486.83 378.57 494.94 370.54 492.4 373.06C477.75 387.55 479.78 411.75 496.62 423.61C497.31 424.09 499.02 425.3 501.76 427.22" id="dakcYlB4ce"></path><path d="M198.6 429.51C206.58 423.93 211.56 420.44 213.55 419.05C225.75 410.51 227.02 392.92 216.17 382.73C213.95 380.63 219.35 385.72 214.89 381.52C208.43 375.44 203.6 367.83 200.87 359.38C199.16 354.11 194.9 340.94 188.08 319.86C182.33 336.54 178.74 346.97 177.3 351.14C173.63 361.8 167.33 371.37 158.99 378.97C153 384.43 160.13 377.93 157.24 380.56C142.97 393.56 144.86 416.55 161.06 427.05C162.01 427.66 164.39 429.2 168.19 431.67" id="du39I1FDq"></path><path d="M194.61 421.84C199.28 418.3 202.2 416.09 203.37 415.21C211.82 408.81 212.72 396.44 205.29 388.89C203.98 387.55 208.09 391.73 205.29 388.88C200.97 384.48 197.64 379.2 195.55 373.39C194.67 370.98 192.49 364.94 189 355.28C185.62 362.15 183.51 366.44 182.66 368.16C179.18 375.23 174.54 381.66 168.93 387.19C165.17 390.91 170.62 385.52 168.93 387.2C159.13 396.86 160.48 413.04 171.75 420.94C172.2 421.26 173.34 422.06 175.16 423.33" id="d3lxgtECOQ"></path><path d="M181.11 287.36L267.92 315.14L254.38 386.67C246.1 384.75 240.93 383.55 238.86 383.08C209.79 376.35 182.06 364.78 156.83 348.85C156.46 348.62 155.52 348.03 154.03 347.08L181.11 287.36Z" id="aXS670umS"></path><path d="M303.87 337.01L412.21 338.33L404.91 396.1C393.65 396.81 386.61 397.25 383.79 397.42C353.88 399.29 323.86 397.95 294.24 393.44C294.24 393.44 294.24 393.44 294.24 393.44L303.87 337.01Z" id="ibXDzaumY"></path><path d="M525 421.84C529.67 418.3 532.59 416.09 533.76 415.21C542.21 408.81 543.11 396.44 535.68 388.89C534.37 387.55 538.48 391.73 535.68 388.88C531.36 384.48 528.03 379.2 525.93 373.39C525.06 370.98 522.88 364.94 519.39 355.28C516.01 362.15 513.9 366.44 513.05 368.16C509.57 375.23 504.93 381.66 499.32 387.19C495.56 390.91 501.01 385.52 499.32 387.2C489.52 396.86 490.87 413.04 502.14 420.94C502.59 421.26 503.73 422.06 505.55 423.33" id="b2Ga90U3Eq"></path><path d="M546.67 285.56C558.36 296.34 565.67 303.08 568.6 305.77C579.83 316.13 577.93 334.38 564.8 342.2C523.68 366.71 570.07 339.07 564.8 342.2C437.58 418.01 279.55 420.09 150.36 347.68C142.82 343.45 192.12 371.08 150.36 347.68C132.83 337.85 131.51 313.11 147.89 301.47C150.87 299.35 158.34 294.04 170.28 285.56" id="e5GHPYIQcl"></path><path d="M451.25 319.99L536.96 303.19L559.71 341.89C559.7 341.9 559.69 341.91 559.68 341.91C534.12 357.44 506.76 369.81 478.21 378.74C476.91 379.15 473.65 380.17 468.43 381.81L451.25 319.99Z" id="dATV9YsR5"></path><path d="M355.97 479.2C360.64 475.66 363.56 473.45 364.73 472.57C373.18 466.17 374.08 453.81 366.66 446.25C365.34 444.91 369.45 449.1 366.65 446.24C362.33 441.84 359 436.56 356.91 430.75C356.03 428.34 353.85 422.3 350.36 412.64C346.98 419.51 344.87 423.8 344.03 425.52C340.55 432.59 335.9 439.02 330.29 444.55C326.53 448.27 331.99 442.89 330.29 444.56C320.49 454.22 321.84 470.4 333.11 478.3C333.56 478.62 334.7 479.42 336.52 480.69" id="c18W1WdN0n"></path><path d="M349.8 472.57C351.58 469.61 352.7 467.76 353.15 467.02C354.65 464.52 354.84 461.44 353.64 458.78C353.07 457.5 352.43 456.08 351.65 454.34C351.06 453.02 350.64 451.62 350.4 450.2C350.15 448.65 349.51 444.79 348.49 438.61C347.38 443.58 346.68 446.68 346.4 447.93C346 449.72 345.4 451.47 344.63 453.15C343.59 455.39 342.78 457.15 342.02 458.78C340.41 462.26 340.71 466.32 342.8 469.53C343.13 470.03 343.95 471.3 345.27 473.33" id="fCe6c3HOL"></path><path d="M518.83 417.16C520.61 414.19 521.73 412.34 522.17 411.6C523.68 409.11 523.86 406.03 522.67 403.37C522.09 402.08 521.46 400.66 520.68 398.92C520.09 397.6 519.67 396.21 519.43 394.78C519.18 393.24 518.54 389.37 517.52 383.2C516.41 388.16 515.71 391.27 515.43 392.51C515.03 394.31 514.43 396.06 513.66 397.73C512.62 399.98 511.81 401.73 511.05 403.36C509.44 406.84 509.73 410.9 511.82 414.11C512.15 414.62 512.98 415.89 514.3 417.92" id="j6ayRRgH"></path><path d="M188.44 415.76C190.22 412.8 191.34 410.95 191.78 410.21C193.29 407.71 193.47 404.64 192.28 401.98C191.7 400.69 191.07 399.27 190.29 397.53C189.7 396.21 189.28 394.82 189.04 393.39C188.79 391.85 188.15 387.98 187.13 381.81C186.02 386.77 185.32 389.88 185.04 391.12C184.64 392.92 184.04 394.67 183.27 396.34C182.23 398.58 181.42 400.34 180.66 401.97C179.05 405.45 179.34 409.51 181.43 412.72C181.76 413.23 182.59 414.5 183.91 416.53" id="b6zIZU3JYW"></path></defs><g><g><g><use xlink:href="#g2Ua2EloJB" opacity="1" fill="#ffffff" fill-opacity="1"></use></g><g><g><use xlink:href="#aDVjazxAj" opacity="1" fill-opacity="0" stroke="#474747" stroke-width="3" stroke-opacity="1"></use></g></g><g><g><use xlink:href="#bskUmEboB" opacity="1" fill-opacity="0" stroke="#474747" stroke-width="6" stroke-opacity="1"></use></g></g><g><g><use xlink:href="#h10TapyaW6" opacity="1" fill-opacity="0" stroke="#000000" stroke-width="2" stroke-opacity="1"></use></g></g><g><g><use xlink:href="#k1nzYcd3YA" opacity="1" fill-opacity="0" stroke="#000000" stroke-width="2" stroke-opacity="1"></use></g></g><g><g><use xlink:href="#b1iGFsMIGl" opacity="1" fill-opacity="0" stroke="#454545" stroke-width="6" stroke-opacity="1"></use></g></g><g><g><use xlink:href="#dgWlLXE0W" opacity="1" fill-opacity="0" stroke="#000000" stroke-width="2" stroke-opacity="1"></use></g></g><g><g><filter id="shadow13060937" x="209.14" y="2.89" width="91.47" height="190.08" filterUnits="userSpaceOnUse" primitiveUnits="userSpaceOnUse"><feFlood></feFlood><feComposite in2="SourceAlpha" operator="in"></feComposite><feGaussianBlur stdDeviation="0"></feGaussianBlur><feOffset dx="1" dy="1" result="afterOffset"></feOffset><feFlood flood-color="#0a1d9b" flood-opacity="0.5"></feFlood><feComposite in2="afterOffset" operator="in"></feComposite><feMorphology operator="dilate" radius="0"></feMorphology><feComposite in2="SourceAlpha" operator="out"></feComposite></filter><path d="M245.73 185.97L233.76 176.85L221.79 163.93L215.14 151.01L215.14 138.09L224.45 126.69L240.41 113.77L257.7 103.13L272.33 92.49L284.3 79.57L292.28 63.61L293.61 49.17L290.95 35.49L286.96 21.05L284.3 8.89" id="cz0P5OZX4" fill="none" stroke="white" filter="url(#shadow13060937)"></path></g><g><use xlink:href="#c2m7mLdsYO" opacity="1" fill-opacity="0" stroke="#b2b6ec" stroke-width="5" stroke-opacity="1"></use></g></g><g><g><filter id="shadow4703510" x="366.25" y="-10" width="98" height="202.11" filterUnits="userSpaceOnUse" primitiveUnits="userSpaceOnUse"><feFlood></feFlood><feComposite in2="SourceAlpha" operator="in"></feComposite><feGaussianBlur stdDeviation="1"></feGaussianBlur><feOffset dx="3" dy="1" result="afterOffset"></feOffset><feFlood flood-color="#000e53" flood-opacity="0.5"></feFlood><feComposite in2="afterOffset" operator="in"></feComposite><feMorphology operator="dilate" radius="0"></feMorphology><feComposite in2="SourceAlpha" operator="out"></feComposite></filter><path d="M439.79 181.11L448.65 173.81L451.25 160.66L450.21 139.48L447.6 124.15L443.96 113.92L439.27 104.43L433.02 98.59L426.25 92.75L412.71 83.98L404.9 78.87L397.6 73.03L390.31 64.27L384.06 53.31L377.29 36.51L376.25 25.56L377.81 11.68L380.94 0" id="lmd0fkbFA" fill="none" stroke="white" filter="url(#shadow4703510)"></path></g><g><use xlink:href="#a1azAbZi3j" opacity="1" fill-opacity="0" stroke="#bbbffc" stroke-width="5" stroke-opacity="1"></use></g></g><g><use xlink:href="#ff5Tp2njL" opacity="1" fill="#c60009" fill-opacity="1"></use><g><use xlink:href="#ff5Tp2njL" opacity="1" fill-opacity="0" stroke="#000000" stroke-width="2" stroke-opacity="1"></use></g></g><g><use xlink:href="#dakcYlB4ce" opacity="1" fill="#c60009" fill-opacity="1"></use><g><use xlink:href="#dakcYlB4ce" opacity="1" fill-opacity="0" stroke="#000000" stroke-width="2" stroke-opacity="1"></use></g></g><g><use xlink:href="#du39I1FDq" opacity="1" fill="#c60009" fill-opacity="1"></use><g><use xlink:href="#du39I1FDq" opacity="1" fill-opacity="0" stroke="#000000" stroke-width="2" stroke-opacity="1"></use></g></g><g><use xlink:href="#d3lxgtECOQ" opacity="1" fill="#b63c05" fill-opacity="1"></use><g><use xlink:href="#d3lxgtECOQ" opacity="1" fill-opacity="0" stroke="#000000" stroke-width="2" stroke-opacity="1"></use></g></g><g><use xlink:href="#aXS670umS" opacity="1" fill="#ffffff" fill-opacity="1"></use><g><use xlink:href="#aXS670umS" opacity="1" fill-opacity="0" stroke="#ffffff" stroke-width="2" stroke-opacity="1"></use></g></g><g><use xlink:href="#ibXDzaumY" opacity="1" fill="#ffffff" fill-opacity="1"></use><g><use xlink:href="#ibXDzaumY" opacity="1" fill-opacity="0" stroke="#ffffff" stroke-width="2" stroke-opacity="1"></use></g></g><g><use xlink:href="#b2Ga90U3Eq" opacity="1" fill="#b63c05" fill-opacity="1"></use><g><use xlink:href="#b2Ga90U3Eq" opacity="1" fill-opacity="0" stroke="#000000" stroke-width="2" stroke-opacity="1"></use></g></g><g><g><use xlink:href="#e5GHPYIQcl" opacity="1" fill-opacity="0" stroke="#474747" stroke-width="3" stroke-opacity="1"></use></g></g><g><use xlink:href="#dATV9YsR5" opacity="1" fill="#ffffff" fill-opacity="1"></use><g><use xlink:href="#dATV9YsR5" opacity="1" fill-opacity="0" stroke="#ffffff" stroke-width="2" stroke-opacity="1"></use></g></g><g><use xlink:href="#c18W1WdN0n" opacity="1" fill="#b63c05" fill-opacity="1"></use><g><use xlink:href="#c18W1WdN0n" opacity="1" fill-opacity="0" stroke="#000000" stroke-width="2" stroke-opacity="1"></use></g></g><g><use xlink:href="#fCe6c3HOL" opacity="1" fill="#f0ca06" fill-opacity="1"></use><g><use xlink:href="#fCe6c3HOL" opacity="1" fill-opacity="0" stroke="#000000" stroke-width="2" stroke-opacity="1"></use></g></g><g><use xlink:href="#j6ayRRgH" opacity="1" fill="#f0ca06" fill-opacity="1"></use><g><use xlink:href="#j6ayRRgH" opacity="1" fill-opacity="0" stroke="#000000" stroke-width="2" stroke-opacity="1"></use></g></g><g><use xlink:href="#b6zIZU3JYW" opacity="1" fill="#f0ca06" fill-opacity="1"></use><g><use xlink:href="#b6zIZU3JYW" opacity="1" fill-opacity="0" stroke="#000000" stroke-width="2" stroke-opacity="1"></use></g></g></g></g></svg>